<svg width="1024" height="768" viewBox="0 0 1024 768" fill="none" xmlns="http://www.w3.org/2000/svg">
<g clip-path="url(#clip0_167_6327)">
<rect width="1024" height="768" fill="#333333"/>
<path d="M162.514 344.164L199.113 207.576L254.201 222.337C283.254 230.122 298.052 248.847 292.492 269.6C288.751 283.56 277.576 291.687 261.778 292.914L261.576 293.668C278.391 303.735 285.841 318.57 281.342 335.361C275.225 358.188 251.372 367.973 219.866 359.531L162.514 344.164ZM223.899 322.598C232.388 324.873 238.203 322.791 239.821 316.754C241.438 310.717 237.443 306.007 228.954 303.732L213.295 299.536L208.24 318.402L223.899 322.598ZM235.748 271.583C243.672 273.706 249.059 271.712 250.525 266.241C251.991 260.77 248.323 256.349 240.399 254.226L226.438 250.485L221.788 267.842L235.748 271.583Z" fill="white"/>
<path d="M477.478 544.868C459.367 549.72 436.657 548.729 418.117 542.171L432 505.694C444.058 509.944 456.817 510.772 467.57 507.891C476.626 505.464 481.15 501.219 479.886 496.503C478.875 492.729 474.974 491.753 462.091 491.969L455.649 492.078C426.474 492.616 407.098 481.429 401.588 460.866C394.764 435.397 413.052 410.074 444.746 401.582C461.537 397.083 479.931 397.816 497.841 403.531L485.053 440.321C472.958 436.687 463.521 436.183 454.654 438.559C445.599 440.985 439.616 445.823 440.728 449.974C441.537 452.992 445.677 454.107 455.528 453.894L461.97 453.786C494.605 453.331 513.061 463.349 518.823 484.856C525.901 511.268 508.606 536.527 477.478 544.868Z" fill="white"/>
<path d="M879.266 460.562C872.611 448.174 869.433 431.424 871.035 416.762L900.051 420.631C899.019 430.164 900.607 439.62 904.558 446.976C907.886 453.17 911.762 455.744 914.988 454.011C917.569 452.624 917.612 449.608 915.24 440.24L914.055 435.556C908.649 414.349 913.487 398.282 927.553 390.726C944.974 381.368 966.603 390.369 978.248 412.049C984.418 423.534 987.043 437.089 985.948 451.146L956.891 448.13C957.466 438.676 956.214 431.7 952.956 425.635C949.628 419.441 945.068 415.904 942.229 417.429C940.164 418.538 940.062 421.753 941.91 428.908L943.096 433.592C949.034 457.339 944.892 472.534 930.181 480.436C912.114 490.141 890.703 481.855 879.266 460.562Z" fill="white"/>
<path d="M713.747 719.694L630.109 597.016L674.334 566.865L748.91 616.544L749.588 616.082L730.59 528.511L774.815 498.36L858.453 621.038L824.226 644.374L782.753 583.543L782.075 584.005L800.164 660.778L772.036 679.955L707.181 635.066L706.503 635.528L747.975 696.359L713.747 719.694Z" fill="white"/>
<path fill-rule="evenodd" clip-rule="evenodd" d="M628.605 369.83L661.315 327.284L609.652 343.802L645.197 309.63L598 303.079L643.224 288.157L605.608 258.914L654.924 269.139L632.597 233.777L673.166 258.747L671.181 211.09L693.691 252.606L704.021 208L713.426 248.618L737.966 214.938L730.082 259.703L774.487 237.029L741.147 281.558L793.59 266.334L761.083 296.411L802 299.779L762.846 316.385L797.149 339.44L753.023 333.433L781.552 372.384L742.605 351.977L750.787 397.355L722.69 360.982L715.887 403.012L696.419 357.237L669.89 398.064L671.824 348.453L628.605 369.83Z" fill="#FF3BAB"/>
<path fill-rule="evenodd" clip-rule="evenodd" d="M160.516 788.545L204.889 739.238L134.807 758.381L183.025 718.78L119 711.187L180.348 693.894L129.32 660.004L196.219 671.854L165.932 630.873L220.965 659.81L218.272 604.581L248.809 652.694L262.821 601L275.58 648.072L308.868 609.04L298.174 660.919L358.412 634.642L313.186 686.246L384.325 668.603L340.228 703.459L395.733 707.363L342.62 726.608L389.152 753.326L329.294 746.364L367.994 791.505L315.162 767.855L326.261 820.444L288.147 778.291L278.918 827L252.509 773.951L216.521 821.265L219.145 763.772L160.516 788.545Z" fill="#3BFFA1"/>
<path fill-rule="evenodd" clip-rule="evenodd" d="M687.617 114.037C719.47 122.067 751.816 102.7 759.862 70.7796C767.909 38.8594 748.609 6.47359 716.756 -1.55604C684.902 -9.58566 652.557 9.78152 644.51 41.7018C644.101 43.3271 643.762 44.9537 643.492 46.5782C642.123 46.1255 640.728 45.7191 639.307 45.3611C607.454 37.3314 575.108 56.6986 567.062 88.6189C559.016 120.539 578.315 152.925 610.169 160.955C642.022 168.984 674.367 149.617 682.414 117.697C682.824 116.071 683.162 114.445 683.432 112.82C684.801 113.273 686.197 113.679 687.617 114.037ZM683.432 112.82C655.66 103.638 638.698 75.4345 643.492 46.5782C671.264 55.7608 688.226 83.964 683.432 112.82Z" fill="#007CFF"/>
<path fill-rule="evenodd" clip-rule="evenodd" d="M76.1117 559.406C108.76 555.773 132.276 526.306 128.635 493.589C124.995 460.872 95.577 437.294 62.9285 440.927C30.28 444.56 6.76425 474.027 10.4047 506.744C10.5901 508.41 10.8423 510.052 11.1583 511.669C9.71749 511.724 8.26823 511.832 6.81255 511.994C-25.836 515.627 -49.3517 545.094 -45.7112 577.811C-42.0708 610.528 -12.6528 634.105 19.9958 630.472C52.6443 626.839 76.16 597.372 72.5195 564.655C72.3342 562.989 72.082 561.347 71.7659 559.731C73.2067 559.676 74.656 559.568 76.1117 559.406ZM71.7659 559.731C42.5366 560.855 16.7726 540.377 11.1583 511.669C40.3876 510.545 66.1516 531.023 71.7659 559.731Z" fill="#FF7B52"/>
<path d="M419.072 134.688C421.281 138.515 426.174 139.826 430 137.617C433.826 135.408 435.137 130.515 432.928 126.688L419.072 134.688ZM341.071 -27.7274C336.803 -28.8709 332.416 -26.3382 331.273 -22.0705L312.638 47.4762C311.494 51.7439 314.027 56.1306 318.294 57.2741C322.562 58.4177 326.949 55.885 328.092 51.6173L344.657 -10.202L406.476 6.36243C410.744 7.50596 415.131 4.97331 416.274 0.705578C417.418 -3.56215 414.885 -7.94885 410.617 -9.09238L341.071 -27.7274ZM432.928 126.688L345.928 -23.9999L332.072 -15.9999L419.072 134.688L432.928 126.688Z" fill="white"/>
<path fill-rule="evenodd" clip-rule="evenodd" d="M998.783 718.765L955.873 597.486L893.216 709.843L892.928 709.818L893.045 710.149L892.874 710.455L893.162 710.479L936.071 831.759L998.729 719.402L999.017 719.426L998.9 719.096L999.07 718.79L998.783 718.765Z" fill="#CE0F2D"/>
<path fill-rule="evenodd" clip-rule="evenodd" d="M438.875 245.602L347.125 192.63L347.125 298.574L346.875 298.719L347.125 298.863L347.125 299.152L347.375 299.007L439.125 351.979L439.125 246.035L439.375 245.891L439.125 245.747L439.125 245.458L438.875 245.602Z" fill="#0FCEA0"/>
<path fill-rule="evenodd" clip-rule="evenodd" d="M969.714 55C958.984 55 950.286 63.6985 950.286 74.4286V87.0233L941.882 78.6202C934.295 71.0329 921.994 71.0329 914.406 78.6202C906.819 86.2076 906.819 98.509 914.406 106.096L921.595 113.286H911.429C900.698 113.286 892 121.984 892 132.714C892 143.444 900.698 152.143 911.429 152.143H921.596L914.407 159.332C906.819 166.919 906.819 179.221 914.407 186.808C921.994 194.395 934.295 194.395 941.883 186.808L950.286 178.405V188.571C950.286 199.302 958.984 208 969.714 208C980.444 208 989.143 199.302 989.143 188.571V180.833L995.118 186.808C1002.7 194.395 1015.01 194.395 1022.59 186.808C1030.18 179.22 1030.18 166.919 1022.59 159.331L1015.4 152.143H1025.57C1036.3 152.143 1045 143.444 1045 132.714C1045 121.984 1036.3 113.286 1025.57 113.286H1015.41L1022.59 106.097C1030.18 98.5094 1030.18 86.208 1022.59 78.6206C1015.01 71.0333 1002.71 71.0333 995.118 78.6206L989.143 84.5957V74.4286C989.143 63.6985 980.444 55 969.714 55Z" fill="#D6FF00"/>
<path fill-rule="evenodd" clip-rule="evenodd" d="M98.4284 107C90.2231 107 83.5713 113.652 83.5713 121.857V131.488L77.1454 125.063C71.3433 119.26 61.9363 119.26 56.1342 125.063C50.3322 130.865 50.3322 140.272 56.1343 146.074L61.6318 151.571H53.8571C45.6518 151.571 39 158.223 39 166.428C39 174.634 45.6518 181.286 53.8571 181.286H61.632L56.1344 186.783C50.3324 192.585 50.3324 201.992 56.1344 207.794C61.9365 213.596 71.3435 213.596 77.1456 207.794L83.5713 201.369V209.143C83.5713 217.348 90.2231 224 98.4284 224C106.634 224 113.286 217.348 113.286 209.143V203.225L117.855 207.794C123.657 213.596 133.064 213.596 138.866 207.794C144.668 201.992 144.668 192.585 138.866 186.783L133.368 181.286H141.143C149.348 181.286 156 174.634 156 166.428C156 158.223 149.348 151.571 141.143 151.571H133.369L138.866 146.074C144.668 140.272 144.668 130.865 138.866 125.063C133.064 119.261 123.657 119.261 117.855 125.063L113.286 129.632V121.857C113.286 113.652 106.634 107 98.4284 107Z" fill="#FF00D6"/>
</g>
<defs>
<clipPath id="clip0_167_6327">
<rect width="1024" height="768" fill="white"/>
</clipPath>
</defs>
</svg>
